# xmcd
# 
# Track frame offsets:
#     150
#     53390
#     140023
#     226222
# 
# Disc length: 3878
# 
# Revision: 1
# Processed by: cddbd v1.5.2PL0 Copyright (c) Steve Scherf et al.
# Submitted via: fre:ac v1.0.31
# 
DISCID=2a0f2404
DTITLE=Erich Kästner - Die verschwundene Miniatur
DYEAR=2002
DGENRE=Hörbuch
TTITLE0=09 - Külz lernt endlich seine Frau kennen
TTITLE1=10 - Saalpost in der Tanzdiele
TTITLE2=11 - Der Kostümball geht zu Ende
TTITLE3=12 - Vater Lieblichs Grogkeller
EXTD=
EXTT0=
EXTT1=
EXTT2=
EXTT3=
PLAYORDER=
